<?xml version="1.0" encoding="utf-8"?>
<!-- Svg Vector Icons : http://www.sfont.cn -->
<!DOCTYPE svg PUBLIC "-//W3C//DTD SVG 1.1//EN" "http://www.w3.org/Graphics/SVG/1.1/DTD/svg11.dtd">
<svg version="1.1" xmlns="http://www.w3.org/2000/svg" xmlns:xlink="http://www.w3.org/1999/xlink" x="0px" y="0px" viewBox="0 0 1000 1000" enable-background="new 0 0 1000 1000" xml:space="preserve">
<metadata> Svg Vector Icons : http://www.sfont.cn </metadata>
<g><g transform="translate(0.000000,512.000000) scale(0.100000,-0.100000)"><path d="M4526.1,5005.1c-1153.9-118.8-2187.1-607.6-2997.9-1418.4C750,2808.5,286.2,1861.6,123.2,723c-15.3-101.6-24.9-352.7-23-613.4c0-488.8,34.5-768.6,143.8-1207.6c159.1-632.5,500.3-1314.9,918.1-1840.1c684.3-858.7,1713.6-1502.8,2769.8-1732.8c385.3-84.3,598-105.4,1054.2-107.3c684.3,0,1201.8,93.9,1792.2,329.7c1936,768.6,3191.5,2672,3118.6,4730.6c-19.2,509.9-88.2,900.9-243.5,1370.5c-241.5,738-619.1,1351.3-1175,1914.9C7715.7,4340,6787.9,4807.7,5685.8,4978.3C5444.3,5014.7,4771.5,5032,4526.1,5005.1z M5359.9,3780.3c437-46,835.7-159.1,1226.7-346.9c1525.8-736,2351.9-2401.7,2010.7-4059.8c-113.1-548.2-398.7-1146.2-753.3-1577.5l-105.4-128.4l-216.6,103.5c-352.7,166.8-807,310.5-1217.2,383.3c-289.4,51.8-268.3,36.4-178.3,139.9c287.5,323.9,544.4,854.9,655.6,1347.5c40.3,184,44.1,241.5,44.1,784c0,494.5-5.7,603.8-34.5,716.9c-176.4,688.1-669,1188.4-1353.3,1376.3c-118.8,32.6-201.3,40.2-442.8,40.2c-327.8,0-461.9-24.9-730.3-139.9c-425.5-180.2-801.2-565.5-973.7-998.7c-118.8-299-126.5-352.7-126.5-994.8c0-649.8,9.6-732.2,136.1-1111.7c124.6-371.9,329.7-749.5,548.2-1000.6c107.3-126.5,126.5-107.3-162.9-159.1c-410.2-72.8-854.9-214.7-1217.2-385.3l-216.6-101.6l-105.4,128.4c-607.6,730.3-908.6,1730.9-810.8,2689.3c113.1,1117.5,722.6,2112.3,1669.5,2727.6C3686.6,3655.7,4553,3862.7,5359.9,3780.3z"/></g></g>
</svg>