<?xml version="1.0" encoding="UTF-8"?>
<svg width="20px" height="20px" viewBox="0 0 20 20" version="1.1" xmlns="http://www.w3.org/2000/svg" xmlns:xlink="http://www.w3.org/1999/xlink">
    <!-- Generator: Sketch 52.3 (67297) - http://www.bohemiancoding.com/sketch -->
    <title>Case</title>
    <desc>Created with Sketch.</desc>
    <g id="Page-1" stroke="none" stroke-width="1" fill="none" fill-rule="evenodd">
        <g id="画板" transform="translate(-172.000000, -280.000000)" fill="#AFB5BB">
            <g id="Icon-2" transform="translate(172.000000, 280.000000)">
                <path d="M0,11.7647059 L20,11.7647059 L20,18 C20,19.1045695 19.1045695,20 18,20 L2,20 C0.8954305,20 1.3527075e-16,19.1045695 0,18 L0,11.7647059 Z M5.33333333,4.11764706 C5.33333333,2.16840677 7.12419433,0.588235294 9.33333333,0.588235294 L10.6666667,0.588235294 C12.8758057,0.588235294 14.6666667,2.16840677 14.6666667,4.11764706 L17.3333333,4.11764706 C18.8060927,4.11764706 20,5.17109471 20,6.47058824 L20,9.41176471 L0,9.41176471 L0,6.47058824 C-1.80361e-16,5.17109471 1.19390733,4.11764706 2.66666667,4.11764706 L5.33333333,4.11764706 Z M12.6666667,4.11764706 C12.6666667,3.14302691 11.7712362,2.35294118 10.6666667,2.35294118 L9.33333333,2.35294118 C8.22876383,2.35294118 7.33333333,3.14302691 7.33333333,4.11764706 L12.6666667,4.11764706 Z" id="Case"></path>
            </g>
        </g>
    </g>
</svg>