<?xml version="1.0" encoding="UTF-8"?>
<svg width="20px" height="20px" viewBox="0 0 20 20" version="1.1" xmlns="http://www.w3.org/2000/svg" xmlns:xlink="http://www.w3.org/1999/xlink">
    <!-- Generator: Sketch 52.3 (67297) - http://www.bohemiancoding.com/sketch -->
    <title>tab_icon_me_dianliang_default</title>
    <desc>Created with Sketch.</desc>
    <g id="Page-1" stroke="none" stroke-width="1" fill="none" fill-rule="evenodd">
        <g id="画板" transform="translate(-358.000000, -280.000000)" fill="#78B5CC">
            <path d="M368,300 C362.477153,300 358,295.522847 358,290 C358,284.477153 362.477153,280 368,280 C373.522847,280 378,284.477153 378,290 C378,295.522847 373.522847,300 368,300 Z M366.090552,291.811422 C365.026583,290.853705 364.315789,289.230428 364.315789,287.894737 C364.315789,285.860004 365.965267,284.210526 368,284.210526 C370.034733,284.210526 371.684211,285.860004 371.684211,287.894737 C371.684211,289.230428 370.973417,290.853705 369.909448,291.811422 C371.696587,292.255325 373.243205,293.30811 374.316368,294.736842 C375.307456,293.417378 375.894737,291.777273 375.894737,290 C375.894737,285.639857 372.360143,282.105263 368,282.105263 C363.639857,282.105263 360.105263,285.639857 360.105263,290 C360.105263,291.777273 360.692544,293.417378 361.683632,294.736842 C362.756795,293.30811 364.303413,292.255325 366.090552,291.811422 Z" id="tab_icon_me_dianliang_default"></path>
        </g>
    </g>
</svg>