<?xml version="1.0" encoding="UTF-8"?>
<svg width="20px" height="20px" viewBox="0 0 20 20" version="1.1" xmlns="http://www.w3.org/2000/svg" xmlns:xlink="http://www.w3.org/1999/xlink">
    <!-- Generator: Sketch 52.3 (67297) - http://www.bohemiancoding.com/sketch -->
    <title>tab_icon_me_weidianliang_default</title>
    <desc>Created with Sketch.</desc>
    <g id="Page-1" stroke="none" stroke-width="1" fill="none" fill-rule="evenodd">
        <g id="画板" transform="translate(-358.000000, -51.000000)" fill="#AFB5BB">
            <path d="M368,71 C362.477153,71 358,66.5228475 358,61 C358,55.4771525 362.477153,51 368,51 C373.522847,51 378,55.4771525 378,61 C378,66.5228475 373.522847,71 368,71 Z M366.090552,62.811422 C365.026583,61.8537046 364.315789,60.2304279 364.315789,58.8947368 C364.315789,56.8600036 365.965267,55.2105263 368,55.2105263 C370.034733,55.2105263 371.684211,56.8600036 371.684211,58.8947368 C371.684211,60.2304279 370.973417,61.8537046 369.909448,62.811422 C371.696587,63.2553249 373.243205,64.3081101 374.316368,65.7368421 C375.307456,64.4173781 375.894737,62.7772725 375.894737,61 C375.894737,56.6398572 372.360143,53.1052632 368,53.1052632 C363.639857,53.1052632 360.105263,56.6398572 360.105263,61 C360.105263,62.7772725 360.692544,64.4173781 361.683632,65.7368421 C362.756795,64.3081101 364.303413,63.2553249 366.090552,62.811422 Z" id="tab_icon_me_weidianliang_default"></path>
        </g>
    </g>
</svg>