<?xml version="1.0" encoding="UTF-8"?>
<svg width="18px" height="20px" viewBox="0 0 18 20" version="1.1" xmlns="http://www.w3.org/2000/svg" xmlns:xlink="http://www.w3.org/1999/xlink">
    <!-- Generator: Sketch 52.3 (67297) - http://www.bohemiancoding.com/sketch -->
    <title>tab_icon_kuaixun_default</title>
    <desc>Created with Sketch.</desc>
    <g id="Page-1" stroke="none" stroke-width="1" fill="none" fill-rule="evenodd">
        <g id="画板" transform="translate(-266.000000, -204.000000)" fill="#78B5CC">
            <g id="tab_icon_kuaixun_default" transform="translate(266.000000, 204.000000)">
                <path d="M10.5971138,1.45395121 C13.039091,2.21256713 14.8077593,4.44108123 14.8077593,7.07213128 L14.8077593,11.8520138 L17.3245354,14.4936795 C17.7782009,14.9698571 17.7498257,15.7142438 17.2611577,16.1563136 C17.0378539,16.3583236 16.7444228,16.4705882 16.4397237,16.4705882 L1.20732991,16.4705882 C0.540540011,16.4705882 1.34040546e-16,15.9438644 0,15.2941176 C0,14.9835228 0.126044804,14.6855298 0.350640245,14.4651398 L2.70714662,12.1527584 L2.70714662,7.07213128 C2.70714662,4.39807826 4.53410317,2.13982714 7.03806498,1.41793648 C7.20340506,0.609366966 7.93572688,0 8.81410723,0 C9.7054821,0 10.446445,0.627529948 10.5971138,1.45395121 Z M5.79578247,17.6470588 L11.832432,17.6470588 C11.832432,18.9465524 10.751352,20 9.41777218,20 L8.21044228,20 C6.87686249,20 5.79578247,18.9465524 5.79578247,17.6470588 Z" id="Bell"></path>
            </g>
        </g>
    </g>
</svg>