<?xml version="1.0" encoding="UTF-8"?>
<svg width="20px" height="20px" viewBox="0 0 20 20" version="1.1" xmlns="http://www.w3.org/2000/svg" xmlns:xlink="http://www.w3.org/1999/xlink">
    <!-- Generator: Sketch 52.3 (67297) - http://www.bohemiancoding.com/sketch -->
    <title>tab_icon_homean_default</title>
    <desc>Created with Sketch.</desc>
    <g id="Page-1" stroke="none" stroke-width="1" fill="none" fill-rule="evenodd">
        <g id="画板" transform="translate(-79.000000, -128.000000)" fill="#AFB5BB">
            <g id="tab_icon_homean_default" transform="translate(79.000000, 128.000000)">
                <path d="M0.737098338,7.54313499 L8.73709834,1.02842911 C9.47253093,0.429538229 10.5274691,0.429538229 11.2629017,1.02842911 L19.2629017,7.54313499 C19.7293004,7.92294135 20,8.49248476 20,9.09396683 L20,18 C20,19.1045695 19.1045695,20 18,20 L12.7647059,20 C12.2124211,20 11.7647059,19.5522847 11.7647059,19 L11.7647059,15.1176471 C11.7647059,14.5653623 11.3169906,14.1176471 10.7647059,14.1176471 L9.23529412,14.1176471 C8.68300937,14.1176471 8.23529412,14.5653623 8.23529412,15.1176471 L8.23529412,19 C8.23529412,19.5522847 7.78757887,20 7.23529412,20 L2,20 C0.8954305,20 -7.89199528e-16,19.1045695 -2.88657986e-15,18 L6.66133815e-15,9.09396683 C7.12190123e-15,8.49248476 0.270699565,7.92294135 0.737098338,7.54313499 Z" id="Home"></path>
            </g>
        </g>
    </g>
</svg>