<?xml version="1.0" encoding="UTF-8"?>
<svg width="19px" height="18px" viewBox="0 0 19 18" version="1.1" xmlns="http://www.w3.org/2000/svg" xmlns:xlink="http://www.w3.org/1999/xlink">
    <!-- Generator: Sketch 52.3 (67297) - http://www.bohemiancoding.com/sketch -->
    <title>wenzhangxiangqing_icon_fenxiang_default</title>
    <desc>Created with Sketch.</desc>
    <g id="Page-1" stroke="none" stroke-width="1" fill="none" fill-rule="evenodd">
        <g id="首页-文章详情" transform="translate(-327.000000, -1043.000000)" stroke="#78B5CC" stroke-width="2">
            <g id="wenzhangxiangqing_icon_fenxiang_default" transform="translate(327.000000, 1042.000000)">
                <path d="M16,11.4592843 L7.22344667,3 C5.3426435,3 5.13206555,3 1.78947368,3 C1.36591183,3 1,3.38624026 1,3.88888889 L1,17.1111111 C1,17.6137597 1.36591183,18 1.78947368,18 L15.2105263,18 C15.6340882,18 16,17.6137597 16,17.1111111 C16,13.6343994 16,13.412588 16,11.4592836 Z" id="路径"></path>
                <path d="M11,4 L16.4057899,2.44432615 L11,4 Z M16.4057899,8 L16.9164862,2.87285122 L16.4057899,8 Z M16.5,2.597447 L12,8.31453554 L16.5,2.597447 Z" id="合并形状" stroke-linecap="round" stroke-linejoin="round" transform="translate(15.054169, 4.704416) rotate(5.000000) translate(-15.054169, -4.704416) "></path>
            </g>
        </g>
    </g>
</svg>